<svg xmlns="http://www.w3.org/2000/svg" viewBox="0 0 4000 4000" width="1500" height="1500">
  <path fill="#dcb" d="M 0 4000 L 0 0 L 4000 0 L 4000 4000 L 0 4000 Z"/>
  <path fill="#911" d="M 1414 2881 L 1370 2796 L 1409 2729 L 1490 2692 L 1534 2770 L 1570 2934 L 1414 2881 Z M 1488 2245 L 1228 2348 L 1075 2562 L 1089 2924 L 1307 3232 L 1746 3432 L 2580 3479 L 2770 3424 L 3020 3279 L 3237 2857 L 3265 2618 L 3148 2186 L 2815 1864 L 2453 1664 L 2318 1631 L 1778 1461 L 1593 1353 L 1039 1274 L 981 1211 L 1053 1152 L 1450 1107 L 1578 1090 L 1777 1238 L 1981 1386 L 2210 1405 L 2344 1303 L 2421 1250 L 2511 1286 L 2569 1391 L 2705 1555 L 2989 1656 L 3268 1575 L 3411 1341 L 3439 1121 L 3360 855 L 3167 863 L 3046 1149 L 2952 1100 L 2810 751 L 2556 674 L 2394 691 L 2283 768 L 2121 932 L 1871 629 L 1611 560 L 1212 666 L 1095 801 L 890 904 L 728 946 L 542 1079 L 520 1316 L 618 1563 L 820 1603 L 1206 1809 L 1460 1842 L 1685 1917 L 1832 2020 L 2016 2078 L 2238 2151 L 2395 2267 L 2603 2404 L 2643 2642 L 2499 2918 C 2499 2918 2194 2987 2162 2992 L 1847 2965 L 1894 2675 L 1857 2462 L 1773 2350 L 1488 2245 Z"/>
</svg>